<svg class="icon" viewBox="0 0 1024 1024" xmlns="http://www.w3.org/2000/svg" width="32" height="32"><path d="M348.16 112.64c0-22.528 18.432-40.96 40.96-40.96H512c22.528 0 40.96 18.432 40.96 40.96h153.6c57.344 0 102.4 45.056 102.4 102.4v26.624c0 12.288-8.192 20.48-20.48 20.48S768 253.952 768 241.664V215.04c0-34.816-26.624-61.44-61.44-61.44h-512c-34.816 0-61.44 26.624-61.44 61.44v532.48c0 34.816 26.624 61.44 61.44 61.44h32.768c12.288 0 20.48 8.192 20.48 20.48s-8.192 20.48-20.48 20.48H194.56c-57.344 0-102.4-45.056-102.4-102.4V215.04c0-57.344 45.056-102.4 102.4-102.4h153.6zm583.68 583.68c0 12.288-8.192 20.48-20.48 20.48s-20.48-8.192-20.48-20.48v-256c0-34.816-26.624-61.44-61.44-61.44h-409.6c-34.816 0-61.44 26.624-61.44 61.44v409.6c0 34.816 26.624 61.44 61.44 61.44h409.6c34.816 0 61.44-26.624 61.44-61.44v-45.056c0-12.288 8.192-20.48 20.48-20.48s20.48 8.192 20.48 20.48v45.056c0 57.344-45.056 102.4-102.4 102.4h-409.6c-57.344 0-102.4-45.056-102.4-102.4v-409.6c0-57.344 45.056-102.4 102.4-102.4h409.6c57.344 0 102.4 45.056 102.4 102.4v256zM245.76 276.48c-12.288 0-20.48-8.192-20.48-20.48s8.192-20.48 20.48-20.48h61.44c12.288 0 20.48 8.192 20.48 20.48s-8.192 20.48-20.48 20.48h-61.44zm163.84 0c-12.288 0-20.48-8.192-20.48-20.48s8.192-20.48 20.48-20.48h245.76c12.288 0 20.48 8.192 20.48 20.48s-8.192 20.48-20.48 20.48H409.6z" fill="#32373B"/></svg>